<?xml version="1.0" encoding="UTF-8"?>
<svg width="64px" height="64px" viewBox="0 0 64 64" version="1.1" xmlns="http://www.w3.org/2000/svg" xmlns:xlink="http://www.w3.org/1999/xlink">
    <!-- Generator: Sketch 53.2 (72643) - https://sketchapp.com -->
    <title>delivery-truck</title>
    <desc>Created with Sketch.</desc>
    <g id="prototype" stroke="none" stroke-width="1" fill="none" fill-rule="evenodd">
        <g id="MORONI" transform="translate(-689.000000, -4235.000000)" fill-rule="nonzero">
            <g id="order" transform="translate(0.000000, 4104.000000)">
                <g id="delivery-truck" transform="translate(689.000000, 131.000000)">
                    <path d="M32,63.5076923 C63.753112,63.5076923 64,49.401218 64,32 C64,14.598782 63.753112,0.492307692 32,0.492307692 C0.246888007,0.492307692 0,14.598782 0,32 C0,49.401218 0.246888007,63.5076923 32,63.5076923 Z" id="Path" fill="#FF9B42"></path>
                    <path d="M11,14.7692308 L32,14.7692308 C33.1045695,14.7692308 34,15.6646613 34,16.7692308 L34,37.4 C34,37.9522847 33.5522847,38.4 33,38.4 L10,38.4 C9.44771525,38.4 9,37.9522847 9,37.4 L9,16.7692308 C9,15.6646613 9.8954305,14.7692308 11,14.7692308 Z M11.75,16.499452 C11.1977153,16.499452 10.75,16.9471672 10.75,17.499452 L10.75,35.7237875 C10.75,36.2760723 11.1977153,36.7237875 11.75,36.7237875 L31.25,36.7237875 C31.8022847,36.7237875 32.25,36.2760723 32.25,35.7237875 L32.25,17.499452 C32.25,16.9471672 31.8022847,16.499452 31.25,16.499452 L11.75,16.499452 Z M26.6,44.8 C26.6,47.2470423 24.5851945,49.2307692 22.1,49.2307692 C19.6148055,49.2307692 17.6,47.2470423 17.6,44.8 C17.6,42.3528762 19.6148055,40.3692308 22.1,40.3692308 C24.5851945,40.3692308 26.6,42.3528762 26.6,44.8 Z M49,44.8 C49,47.2470423 46.9851945,49.2307692 44.5,49.2307692 C42.0148055,49.2307692 40,47.2470423 40,44.8 C40,42.3528762 42.0148055,40.3692308 44.5,40.3692308 C46.9851945,40.3692308 49,42.3528762 49,44.8 Z M25.3129676,44.7999502 C25.3129676,43.0430009 24.0971628,41.6102555 22.1020418,41.6102555 C20.1069207,41.6102555 18.92,42.96735 18.92,44.7999502 C18.92,46.6325504 20.4876027,47.9492921 22.1020418,47.9492921 C23.7164808,47.9492921 25.3129676,46.5568994 25.3129676,44.7999502 Z M47.7109765,44.7999502 C47.7109765,43.0430009 46.4951716,41.6102555 44.5000506,41.6102555 C42.5049296,41.6102555 41.3180089,42.96735 41.3180089,44.7999502 C41.3180089,46.6325504 42.8856116,47.9492921 44.5000506,47.9492921 C46.1144896,47.9492921 47.7109765,46.5568994 47.7109765,44.7999502 Z M18,40.3692308 L8.66922104,40.3692308 C8.29962834,40.3692308 8,40.6319531 8,40.9560222 L8,42.7362855 C8,43.0603545 8.29962834,43.3230769 8.66922104,43.3230769 L16.1482815,43.3230769 C16.3435381,42.1482846 17.0198092,41.1105648 18,40.3692308 Z M56,41.5213793 L55.9962761,42.8555573 C55.9962761,43.2370263 55.6938809,43.4087062 55.3208753,43.4087062 L49.9429841,43.4087062 C49.5518812,40.6654993 47.1531117,39.2409425 44.3646569,39.2409425 C41.5756607,39.2409425 39.5032655,40.6655783 39.1121626,43.4087062 L27.8752447,43.4087062 C27.6781077,42.025911 26.9892422,41.351161 26,40.4785202 L36.4402905,40.4785202 L36.4402905,21.0737583 C36.4402905,20.3108205 37.0450809,19.6923077 37.7910921,19.6923077 L44.1672996,19.6923077 C45.9626453,19.6923077 47.6406679,20.6043372 48.6452232,22.126021 L52.7557869,28.3523565 C53.3587211,29.2656515 53.6809151,30.3424332 53.6809151,31.4444458 L53.6809151,40.830654 L55.3245992,40.830654 C55.6976048,40.830654 56,41.1399103 56,41.5213793 Z M51.1641722,29.2600014 L46.4940213,22.2295064 C45.7468108,21.4700468 45.3592575,21.5673811 45.1166394,21.5673811 L39.184516,21.5673811 C38.7728678,21.5673811 38.4389905,21.8638325 38.4389905,22.2295064 L38.4389905,29.6315562 C38.4389905,29.9973059 38.7727824,30.2919234 39.184516,30.2919234 L50.684395,30.2919234 C51.2882937,30.2919234 51.8928024,30.1795094 51.1641722,29.2600014 Z" id="Shape" fill="#FFFFFF"></path>
                </g>
            </g>
        </g>
    </g>
</svg>