<?xml version="1.0" encoding="UTF-8"?>
<svg width="126px" height="126px" viewBox="0 0 126 126" version="1.1" xmlns="http://www.w3.org/2000/svg" xmlns:xlink="http://www.w3.org/1999/xlink">
    <!-- Generator: Sketch 53.2 (72643) - https://sketchapp.com -->
    <title>icon</title>
    <desc>Created with Sketch.</desc>
    <defs>
        <path d="M48,96 C95.629668,96 96,74.509668 96,48 C96,21.490332 95.629668,0 48,0 C0.370332011,0 0,21.490332 0,48 C0,74.509668 0.370332011,96 48,96 Z" id="path-1"></path>
        <filter x="-24.0%" y="-24.0%" width="147.9%" height="147.9%" filterUnits="objectBoundingBox" id="filter-2">
            <feMorphology radius="0.5" operator="dilate" in="SourceAlpha" result="shadowSpreadOuter1"></feMorphology>
            <feOffset dx="0" dy="0" in="shadowSpreadOuter1" result="shadowOffsetOuter1"></feOffset>
            <feGaussianBlur stdDeviation="7.5" in="shadowOffsetOuter1" result="shadowBlurOuter1"></feGaussianBlur>
            <feComposite in="shadowBlurOuter1" in2="SourceAlpha" operator="out" result="shadowBlurOuter1"></feComposite>
            <feColorMatrix values="0 0 0 0 0   0 0 0 0 0   0 0 0 0 0  0 0 0 0.05 0" type="matrix" in="shadowBlurOuter1"></feColorMatrix>
        </filter>
    </defs>
    <g id="prototype" stroke="none" stroke-width="1" fill="none" fill-rule="evenodd">
        <g id="MORONI" transform="translate(-1164.000000, -735.000000)">
            <g id="section-features" transform="translate(0.000000, 691.000000)">
                <g id="menu-item-copy-2" transform="translate(1074.000000, 59.000000)">
                    <g id="icon" transform="translate(105.000000, 0.000000)">
                        <g id="Path">
                            <use fill="black" fill-opacity="1" filter="url(#filter-2)" xlink:href="#path-1"></use>
                            <use stroke-opacity="0.291165865" stroke="#999999" stroke-width="1" fill="#FFFFFF" fill-rule="evenodd" xlink:href="#path-1"></use>
                        </g>
                        <g id="delivery-truck" transform="translate(24.000000, 24.000000)" fill-rule="nonzero">
                            <rect id="Rectangle" x="0" y="0" width="48" height="48"></rect>
                            <g id="award" transform="translate(3.000000, 0.000000)" fill="#333333">
                                <path d="M41.8989414,42.0527016 L34.315925,29.3219033 C37.2813504,26.2008043 39.0606057,22.0530281 39.0606057,17.4945809 C39.0606057,12.6486642 37.0271711,8.29555247 33.7652031,5.13338643 C30.5032351,1.97122039 26.0127338,0 21.0138738,0 C16.0150138,0 11.5245124,1.97122039 8.26254446,5.13338643 C5.00057649,8.29555247 2.96714191,12.6486642 2.96714191,17.4945809 C2.96714191,22.0530281 4.74639717,26.2008043 7.71182259,29.3219033 L0.128806149,42.0527016 C0.001716488,42.2580371 -0.0406467324,42.5455067 0.0440797084,42.8329763 C0.21353259,43.2847143 0.721891234,43.4900498 1.18788666,43.3257814 L7.24582717,40.9849572 L8.17781802,47.2682222 C8.22018124,47.5146248 8.3472709,47.7610273 8.60145022,47.8842286 C9.02508242,48.1306311 9.57580429,47.9663628 9.82998361,47.5556919 L17.4977265,34.7016922 C18.5991702,34.9070277 19.7853404,35.030229 20.9291473,35.030229 C22.1153175,35.030229 23.2591245,34.9070277 24.3605682,34.7016922 L32.0283111,47.5556919 C32.2824904,47.9663628 32.8332123,48.089564 33.2568445,47.8842286 C33.5110238,47.7610273 33.6381135,47.5146248 33.6804767,47.2682222 L34.6124675,40.9849572 L40.670408,43.3257814 C41.1364035,43.4900498 41.6447621,43.2847143 41.814215,42.8329763 C42.0683943,42.5455067 42.0260311,42.2580371 41.8989414,42.0527016 Z M9.36321867,45.1972362 L8.5635167,40.0720741 C8.47466092,39.5983196 8.03038205,39.2537709 7.4972474,39.2968395 C7.40839162,39.2968395 7.31953585,39.3399081 7.23068007,39.3829767 L2.29918457,41.2779946 L8.69680036,30.553916 C10.6960553,32.2766596 13.0951612,33.6117858 15.7608345,34.3870204 L9.36321867,45.1972362 Z M21,33.5659236 C16.4201296,33.5659236 12.2723224,31.7648944 9.29108597,28.8748707 C6.30984955,25.9848471 4.45197759,21.9639446 4.45197759,17.5241982 C4.45197759,13.0844517 6.30984955,9.06354923 9.29108597,6.17352559 C12.2723224,3.19973315 16.4201296,1.39870393 21,1.39870393 C25.5798704,1.39870393 29.7276776,3.19973315 32.708914,6.08975679 C35.6901504,8.97978043 37.5480224,13.0006829 37.5480224,17.4404294 C37.5480224,21.8801758 35.6901504,25.9010783 32.708914,28.7911019 C29.7276776,31.7648944 25.5798704,33.5659236 21,33.5659236 Z M34.6541511,39.3829767 C34.5652953,39.3399081 34.4764395,39.2968395 34.3875838,39.2968395 C33.898877,39.2107023 33.4101702,39.5552511 33.3213145,40.0720741 L32.5216125,45.1972362 L26.1239967,34.3870204 C28.7896699,33.6117858 31.1887759,32.2766596 33.1880308,30.553916 L39.5856466,41.2779946 L34.6541511,39.3829767 Z" id="Shape"></path>
                                <path d="M29.0033129,15.1067073 C28.7963599,14.839939 28.5480164,14.6493902 28.2582823,14.535061 C27.9685481,14.4207317 27.6374234,14.3445122 27.3062987,14.382622 L23.8708796,14.382622 L22.7947242,11.257622 C22.6291618,10.8003049 22.2566465,10.4192073 21.8427406,10.1905488 C21.5530064,10.0762195 21.2632723,10 20.9321476,10 C20.6010228,10 20.3112887,10.0762195 20.0215546,10.1905488 C19.566258,10.4192073 19.2351333,10.7621951 19.069571,11.257622 L17.9934156,14.382622 L14.5579965,14.382622 C14.2268717,14.3445122 13.895747,14.4207317 13.6060129,14.535061 C13.3162787,14.6493902 13.0679352,14.839939 12.8609822,15.1067073 C12.5298575,15.5259146 12.4470763,15.9832317 12.5298575,16.4405488 C12.6126387,16.8978659 12.8609822,17.3170732 13.3162787,17.6219512 L16.2136201,19.527439 L15.0960742,22.652439 C15.0960742,22.6905488 15.0960742,22.7286585 15.0546836,22.7286585 C14.9719024,22.9573171 14.9719024,23.2240854 15.013293,23.4908537 C15.0546836,23.757622 15.1788554,24.0243902 15.3858083,24.2530488 C15.716933,24.6722561 16.1722295,24.9009146 16.6689166,24.9771341 C17.1656037,25.0533537 17.7036814,24.9390244 18.1175873,24.6341463 L21.0149287,22.6905488 L23.9122702,24.6341463 C24.3675667,24.9390244 24.8642538,25.0152439 25.3609409,24.9771341 C25.857628,24.9009146 26.3129245,24.6722561 26.6440492,24.2530488 C26.8510021,24.0243902 26.9337833,23.757622 27.0165645,23.4908537 C27.0579551,23.2240854 27.0579551,22.9954268 26.9751739,22.7286585 C26.9751739,22.6905488 26.9751739,22.652439 26.9337833,22.652439 L25.8162374,19.527439 L28.7135788,17.6219512 C29.1688753,17.3170732 29.4172188,16.8978659 29.5,16.4405488 C29.4586094,16.0213415 29.3344376,15.5259146 29.0033129,15.1067073 Z M27.9165146,16.2860475 L27.8732864,16.3258492 L24.3718009,18.6741508 C24.0692034,18.8731594 23.8962905,19.2711766 24.0259751,19.5895904 L25.3660498,23.3707539 L25.3660498,23.4105556 C25.3660498,23.4503573 25.3660498,23.490159 25.3660498,23.5299608 C25.3660498,23.5697625 25.3660498,23.6095642 25.3228216,23.6095642 C25.2795934,23.6493659 25.2363652,23.6891676 25.1499088,23.6891676 C25.1066806,23.6891676 25.0202241,23.6891676 24.9769959,23.6493659 L21.4322822,21.2612627 C21.2593693,21.1418575 21.0864564,21.1020558 20.8703154,21.1020558 C20.6974025,21.1020558 20.4812614,21.1418575 20.3083485,21.2612627 L16.7636348,23.6493659 C16.7204066,23.6891676 16.6339502,23.6891676 16.5907219,23.6891676 C16.5474937,23.6891676 16.4610373,23.6493659 16.4178091,23.6095642 C16.3745809,23.5697625 16.3745809,23.5299608 16.3745809,23.5299608 C16.3745809,23.490159 16.3745809,23.4503573 16.3745809,23.4105556 L16.3745809,23.3707539 L17.7146556,19.5895904 C17.8443402,19.2313749 17.7146556,18.8731594 17.3688298,18.6741508 L14.0402572,16.3258492 L13.997029,16.2860475 C13.9538007,16.2462458 13.9105725,16.2064441 13.9105725,16.1666423 C13.9105725,16.1268406 13.9105725,16.0472372 13.9538007,16.0074355 C13.9538007,16.0074355 13.9538007,15.9676337 13.997029,15.9676337 C14.0402572,15.927832 14.0402572,15.927832 14.0834854,15.927832 C14.1267136,15.927832 14.1699418,15.8880303 14.21317,15.8880303 C14.2563983,15.8880303 14.2996265,15.8880303 14.3428547,15.8880303 L18.5792199,15.8880303 C18.9682738,15.8880303 19.3140996,15.64922 19.4437842,15.2910045 L20.7838589,11.4700392 C20.7838589,11.4302375 20.8270871,11.3506341 20.9135436,11.3506341 C20.9567718,11.3506341 21,11.3108324 21,11.3108324 C21.0432282,11.3108324 21.0864564,11.3108324 21.0864564,11.3506341 C21.1296846,11.3904358 21.1729129,11.4302375 21.2161411,11.4700392 L22.5562158,15.2910045 C22.6859004,15.6094182 23.0317262,15.8880303 23.4207801,15.8880303 L27.6571453,15.8880303 C27.7003735,15.8880303 27.7436017,15.8880303 27.78683,15.8880303 C27.8300582,15.8880303 27.8732864,15.8880303 27.9165146,15.927832 C27.9597428,15.927832 27.9597428,15.9676337 28.002971,15.9676337 C28.002971,15.9676337 28.002971,16.0074355 28.0461993,16.0074355 C28.0894275,16.0472372 28.0894275,16.0870389 28.0894275,16.1666423 C28.002971,16.2064441 27.9597428,16.2462458 27.9165146,16.2860475 Z" id="Shape"></path>
                                <path d="M30.9096386,7.59036145 C28.3795181,5.06024096 24.8795181,3.5 21,3.5 C17.1204819,3.5 13.6204819,5.06024096 11.0903614,7.59036145 C8.56024096,10.1204819 7,13.6204819 7,17.5 C7,21.3795181 8.56024096,24.8795181 11.0903614,27.4096386 C13.6204819,29.939759 17.1204819,31.5 21,31.5 C24.8795181,31.5 28.3795181,29.939759 30.9096386,27.4096386 C33.439759,24.8795181 35,21.3795181 35,17.5 C35,13.6204819 33.439759,10.1204819 30.9096386,7.59036145 Z M29.7975804,26.2611216 C27.5341252,28.520681 24.4165361,29.8849433 21,29.8849433 C17.5834639,29.8849433 14.4658748,28.4780478 12.2451263,26.2611216 C9.98167117,24.0015623 8.61505675,20.9319722 8.61505675,17.5213166 C8.61505675,14.110661 10.0243779,10.9984377 12.2451263,8.78151155 C14.4658748,6.52195219 17.5834639,5.11505675 21,5.11505675 C24.4165361,5.11505675 27.5341252,6.52195219 29.7548737,8.73887835 C32.0183288,10.9984377 33.3849433,14.0680278 33.3849433,17.4786834 C33.3849433,20.889339 32.0183288,24.0441955 29.7975804,26.2611216 Z" id="Shape"></path>
                            </g>
                        </g>
                    </g>
                </g>
            </g>
        </g>
    </g>
</svg>