<?xml version="1.0" encoding="UTF-8"?>
<svg width="32px" height="30px" viewBox="0 0 32 30" version="1.1" xmlns="http://www.w3.org/2000/svg" xmlns:xlink="http://www.w3.org/1999/xlink">
    <!-- Generator: Sketch 53.2 (72643) - https://sketchapp.com -->
    <title>download</title>
    <desc>Created with Sketch.</desc>
    <g id="prototype" stroke="none" stroke-width="1" fill="none" fill-rule="evenodd">
        <g id="MORONI" transform="translate(-33.000000, -4033.000000)" fill="#999999" fill-rule="nonzero">
            <g id="Group-17-Copy-2" transform="translate(33.000000, 4028.000000)">
                <g id="download" transform="translate(0.000000, 5.000000)">
                    <path d="M31.0831919,14.4554416 C30.573854,14.4554416 30.1663837,14.8540244 30.1663837,15.3522529 L30.1663837,23.5099146 C30.1663837,25.7286922 28.3191851,27.528958 26.057725,27.528958 L5.94227504,27.528958 C3.67402377,27.528958 1.8336163,25.7220492 1.8336163,23.5099146 L1.8336163,15.219392 C1.8336163,14.7211635 1.42614601,14.3225806 0.916808149,14.3225806 C0.407470289,14.3225806 0,14.7211635 0,15.219392 L0,23.5099146 C0,26.7185062 2.66893039,29.3225806 5.94227504,29.3225806 L26.057725,29.3225806 C29.3378608,29.3225806 32,26.7118632 32,23.5099146 L32,15.3522529 C32,14.8606674 31.5925297,14.4554416 31.0831919,14.4554416 Z" id="Path"></path>
                    <path d="M15.8815756,22.0587126 C16.0517241,22.2302268 16.2807702,22.3225806 16.5032721,22.3225806 C16.725774,22.3225806 16.95482,22.2368235 17.1249685,22.0587126 L22.7398691,16.3987426 C23.0867103,16.0491174 23.0867103,15.4883977 22.7398691,15.1387725 C22.3930279,14.7891474 21.8367732,14.7891474 21.489932,15.1387725 L17.3867355,19.2815012 L17.3867355,1.21313537 C17.3867355,0.718382744 16.9940851,0.322580645 16.5032721,0.322580645 C16.0124591,0.322580645 15.6198087,0.718382744 15.6198087,1.21313537 L15.6198087,19.2815012 L11.510068,15.1387725 C11.1632268,14.7891474 10.6069721,14.7891474 10.2601309,15.1387725 C9.91328971,15.4883977 9.91328971,16.0491174 10.2601309,16.3987426 L15.8815756,22.0587126 Z" id="Path"></path>
                </g>
            </g>
        </g>
    </g>
</svg>