<?xml version="1.0" encoding="UTF-8"?>
<svg width="18px" height="18px" viewBox="0 0 18 18" version="1.1" xmlns="http://www.w3.org/2000/svg" xmlns:xlink="http://www.w3.org/1999/xlink">
    <!-- Generator: Sketch 53.2 (72643) - https://sketchapp.com -->
    <title>Group 7</title>
    <desc>Created with Sketch.</desc>
    <g id="prototype" stroke="none" stroke-width="1" fill="none" fill-rule="evenodd">
        <g id="MORONI" transform="translate(-262.000000, -4914.000000)">
            <g id="order" transform="translate(0.000000, 4104.000000)">
                <g id="cards-row" transform="translate(210.000000, 449.000000)">
                    <g id="card-delievery-kiev-copy-2">
                        <g id="Group-8" transform="translate(52.000000, 335.000000)">
                            <g id="Group-7" transform="translate(0.000000, 26.000000)">
                                <circle id="Oval" fill="#FF9B42" cx="9" cy="9" r="9"></circle>
                                <path d="M9.092,3.352 C10.132,3.352 10.964,3.624 11.604,4.2 C12.228,4.76 12.548,5.528 12.548,6.488 C12.548,7.272 12.34,7.928 11.956,8.44 C11.812,8.616 11.364,9.032 10.596,9.688 C10.308,9.944 10.084,10.216 9.94,10.504 C9.764,10.824 9.684,11.176 9.684,11.576 L9.684,11.848 L7.972,11.848 L7.972,11.576 C7.972,10.984 8.068,10.472 8.276,10.056 C8.5,9.608 9.108,8.952 10.1,8.072 L10.372,7.768 C10.66,7.4 10.804,7.016 10.804,6.6 C10.804,6.04 10.644,5.608 10.34,5.288 C10.02,4.968 9.572,4.808 8.996,4.808 C8.276,4.808 7.748,5.032 7.428,5.48 C7.14,5.864 6.996,6.424 6.996,7.128 L5.3,7.128 C5.3,5.96 5.636,5.048 6.324,4.376 C6.996,3.688 7.924,3.352 9.092,3.352 Z M8.82,12.712 C9.156,12.712 9.444,12.808 9.668,13.032 C9.892,13.24 10.004,13.512 10.004,13.848 C10.004,14.184 9.892,14.456 9.668,14.68 C9.428,14.888 9.14,15 8.82,15 C8.484,15 8.212,14.888 8.004,14.664 C7.764,14.44 7.652,14.168 7.652,13.848 C7.652,13.512 7.764,13.24 8.004,13.032 C8.212,12.808 8.484,12.712 8.82,12.712 Z" id="?" fill="#FFFFFF" fill-rule="nonzero"></path>
                            </g>
                        </g>
                    </g>
                </g>
            </g>
        </g>
    </g>
</svg>