<?xml version="1.0" encoding="UTF-8"?>
<svg width="1440px" height="102px" viewBox="0 0 1440 102" version="1.1" xmlns="http://www.w3.org/2000/svg" xmlns:xlink="http://www.w3.org/1999/xlink">
    <!-- Generator: Sketch 53.2 (72643) - https://sketchapp.com -->
    <title>bg</title>
    <desc>Created with Sketch.</desc>
    <g id="prototype" stroke="none" stroke-width="1" fill="none" fill-rule="evenodd">
        <g id="Group-4" transform="translate(0.000000, -464.000000)">
            <g id="bg" transform="translate(0.000000, 464.000000)">
                <rect id="Rectangle" fill="#FFFFFF" x="0" y="37" width="1440" height="64"></rect>
                <path d="M1440,101.004991 C1249.03607,61.2014727 996.89912,37 720.5,37 C443.618147,37 191.083283,61.2860826 8.52651283e-14,101.213686 L0,0 L1440,0 L1440,101.004991 Z" fill="#1D1D1D"></path>
                <path d="M569,39.7062716 C580.874515,38.9852068 591.408028,34.4550235 600.600539,26.1157216 C609.79305,17.7764198 615.603441,9.37117921 618.031714,0.9 C620.977685,10.6768587 626.425596,19.0820992 634.375449,26.1157216 C642.325301,33.1493441 652.533485,37.0603997 665,37.8488885 C643.898512,45.6392542 627.943048,49.6524546 617.133609,49.8884895 C606.324171,50.1245244 590.279634,46.7304518 569,39.7062716 Z" id="Path-6" fill="#FFFFFF"></path>
            </g>
        </g>
    </g>
</svg>