<?xml version="1.0" encoding="UTF-8"?>
<svg width="64px" height="64px" viewBox="0 0 64 64" version="1.1" xmlns="http://www.w3.org/2000/svg" xmlns:xlink="http://www.w3.org/1999/xlink">
    <!-- Generator: Sketch 53.2 (72643) - https://sketchapp.com -->
    <title>Group</title>
    <desc>Created with Sketch.</desc>
    <g id="prototype" stroke="none" stroke-width="1" fill="none" fill-rule="evenodd">
        <g id="collection-leather" transform="translate(-590.000000, -542.000000)" fill-rule="nonzero">
            <g id="Group-4" transform="translate(0.000000, -70.000000)">
                <g id="header-options" transform="translate(559.000000, 612.000000)">
                    <g id="leather">
                        <g id="Group" transform="translate(31.000000, 0.000000)">
                            <path d="M32,64 C63.753112,64 64,49.673112 64,32 C64,14.326888 63.753112,0 32,0 C0.246888007,0 0,14.326888 0,32 C0,49.673112 0.246888007,64 32,64 Z" id="Path" fill="#FF9B42"></path>
                            <g id="leather" transform="translate(13.000000, 9.500000)" fill="#FFFFFF">
                                <path d="M37.056685,13.8907581 C37.2801284,13.7417667 37.3545804,13.4438714 37.2801284,13.220428 L37.2801284,13.145976 C36.7587896,10.6135597 35.3435902,8.37912606 33.2581479,6.81502253 C33.0347045,6.6660312 32.8112611,6.59157917 32.5133658,6.74057051 C29.9064974,7.63434395 27.8210552,7.63434395 26.1824996,6.66611848 C23.5756313,5.10201495 23.1287446,1.37792982 23.1287446,1.37792982 C23.1287446,1.08003444 22.9053012,0.856591075 22.6074058,0.782051766 C20.0750768,-0.260713016 17.2447651,-0.260713016 14.6378968,0.782051766 C14.4144535,0.856503792 14.1910101,1.07994715 14.1910101,1.37792982 C14.1910101,1.37792982 13.7441234,5.02747564 11.1372551,6.66611848 C9.4986995,7.70888326 7.33871791,7.70888326 4.7318496,6.74057051 C4.50840624,6.59157917 4.28496287,6.66611848 4.06151951,6.81502253 C1.97607723,8.37912606 0.560965033,10.6135597 0.0395390011,13.1458887 L0.0395390011,13.2203407 C0.0395390011,13.4437841 0.113991027,13.7416795 0.262982363,13.8906708 C2.49741598,16.1251044 3.76362412,19.4767548 3.76362412,23.0518486 C3.76362412,26.6269424 2.49741598,29.9785928 0.262982363,32.2130265 C0.0395390011,32.3620178 -0.0349130253,32.6599132 0.0395390011,32.8833565 L0.0395390011,32.9578086 C0.560877751,35.4901376 1.97607723,37.7245712 4.06151951,39.2886747 C4.28496287,39.4376661 4.50840624,39.5121181 4.7318496,39.4376661 C5.17873632,39.2886747 14.5633575,36.0860156 17.98946,44.2044287 C18.063912,44.5023241 18.3618947,44.6513154 18.65979,44.6513154 C18.9576854,44.6513154 19.2556681,44.5023241 19.3301201,44.1299767 C22.8307619,36.0860156 32.2153831,39.2142227 32.5877305,39.363214 C32.8111739,39.5122054 33.0346172,39.4376661 33.2580606,39.288762 C35.3435029,37.7246585 36.7587023,35.4902249 37.2800411,32.9578959 L37.2800411,32.8834438 C37.2800411,32.6600005 37.2055891,32.3621051 37.0565977,32.2131137 C32.4388264,27.5952552 32.4388264,18.5085294 37.056685,13.8907581 Z M32.6622698,37.7991978 C30.7257316,37.277859 22.6073185,35.4157728 18.65979,42.193613 C16.2763651,38.1716325 12.4033759,37.203407 9.27516886,37.203407 C7.18972658,37.203407 5.40217968,37.6502937 4.65731029,37.8737371 C3.16765878,36.6075289 2.05044197,34.8945214 1.60355525,32.9579831 C3.91244089,30.5001062 5.25310106,26.9250124 5.25310106,23.0520232 C5.25310106,19.179034 3.91244089,15.6039402 1.60355525,13.0715239 C2.05044197,11.1349857 3.16765878,9.42197813 4.65731029,8.15576998 C7.56207399,9.12399546 10.019951,9.04954343 11.9564892,7.8578746 C14.5633575,6.21914447 15.3826789,3.09093741 15.6061223,1.89926857 C17.6171125,1.22893849 19.7025548,1.22893849 21.7135451,1.89926857 C21.9369884,3.09093741 22.7563099,6.21914447 25.3630909,7.85778731 C27.2996291,9.04945615 29.7575061,9.12399546 32.6622698,8.1556827 C34.2263733,9.42189085 35.2691381,11.1348984 35.7160248,13.0714367 C30.8747229,18.285086 30.8747229,27.6697072 35.7160248,32.8834438 C35.2691381,34.8198948 34.2263733,36.5329896 32.6622698,37.7991978 Z" id="Shape"></path>
                                <path d="M19.6281028,36.830885 C19.3302074,37.1287804 18.9577727,37.3522238 18.6598773,37.6502064 C18.3619819,37.3523111 17.9895472,37.0543284 17.6916519,36.830885 C17.3192172,36.6074417 16.8723304,36.6818937 16.6488871,36.9798764 C16.4254437,37.2777718 16.4998957,37.7991978 16.7978784,38.0226411 C17.3192172,38.3205365 17.6916519,38.6929712 18.1385386,39.139858 C18.2875299,39.2888493 18.436434,39.3633013 18.6598773,39.3633013 C18.8833207,39.3633013 19.032312,39.2888493 19.1812161,39.139858 C19.6281028,38.7674233 20.0749895,38.3950758 20.5218763,38.0226411 C20.8197716,37.7991978 20.8943109,37.277859 20.6708676,36.9798764 C20.4474242,36.6818937 19.9259982,36.6074417 19.6281028,36.830885 Z" id="Path"></path>
                                <path d="M14.1910101,35.0433381 C13.2227846,34.6709034 12.1055678,34.4474601 10.988351,34.373008 C10.5414643,34.373008 10.2435689,34.6709034 10.1690296,35.0433381 C10.0945776,35.4902249 10.466925,35.7881202 10.8393597,35.8626596 C11.8821245,35.9371116 12.8503499,36.1605549 13.7441234,36.4585376 C13.8185754,36.4585376 13.8931147,36.4585376 13.9675667,36.4585376 C14.2654621,36.4585376 14.5634448,36.2350943 14.6378968,36.0116509 C14.7868009,35.5647642 14.5633575,35.1923295 14.1910101,35.0433381 Z" id="Path"></path>
                                <path d="M7.11527455,34.373008 C6.5939358,34.4474601 6.07250977,34.5219994 5.62562304,34.5964514 C5.32772766,34.2240167 5.10428429,33.9261213 4.95529296,33.5536866 C5.25318835,33.1812519 5.55117102,32.7343652 5.84906641,32.2874785 C5.99805774,31.9150438 5.92351843,31.4681571 5.55117102,31.2447137 C5.17873632,31.0957224 4.7318496,31.1702617 4.50840624,31.5426091 C4.21051085,32.0639478 3.91252818,32.5853739 3.54018076,33.0322606 C3.39118943,33.255704 3.39118943,33.5535993 3.46572874,33.7770427 C3.76362412,34.5963641 4.21051085,35.2666942 4.80638891,35.9370243 C4.88084093,36.0860156 5.10428429,36.1604677 5.32772766,36.1604677 C5.32772766,36.1604677 5.40217968,36.1604677 5.47671899,36.1604677 C6.07259705,36.0114763 6.66838783,35.9370243 7.26426588,35.8625723 C7.71115261,35.7881202 8.009048,35.4156855 7.93459597,35.0432509 C7.86005666,34.5964514 7.56216127,34.298556 7.11527455,34.373008 Z" id="Path"></path>
                                <path d="M7.41316994,17.6892952 C7.33871791,17.2424085 6.89183119,17.0189651 6.51939649,17.1679565 C6.07250977,17.2424085 5.84906641,17.6892952 5.99805774,18.0617299 C6.29595313,19.0299554 6.44494446,20.0727202 6.5939358,21.115485 C6.66838783,21.4879197 6.9663705,21.785815 7.33871791,21.785815 C7.33871791,21.785815 7.41316994,21.785815 7.41316994,21.8602671 C7.86005666,21.785815 8.15795205,21.4133804 8.08350002,21.0409457 C7.93459597,19.9237288 7.71115261,18.806512 7.41316994,17.6892952 Z" id="Path"></path>
                                <path d="M7.33871791,24.3180568 C6.89183119,24.2436047 6.5939358,24.6159522 6.51939649,24.9883869 C6.44494446,26.1056037 6.2215011,27.1483684 5.92351843,28.1165939 C5.84906641,28.4890286 6.07250977,28.861376 6.44485718,29.0103674 C6.51930921,29.0103674 6.59384852,29.0103674 6.66830054,29.0103674 C7.04073524,29.0103674 7.33863063,28.786924 7.33863063,28.4890286 C7.63652602,27.4462638 7.85996938,26.254595 8.00896071,25.1373782 C8.009048,24.6904915 7.71115261,24.3925961 7.33871791,24.3180568 Z" id="Path"></path>
                                <path d="M5.77461438,13.8162188 C5.55117102,13.369332 5.25327563,12.9224453 4.95529296,12.5500106 C5.10428429,12.1775759 5.32772766,11.8796805 5.55117102,11.5817852 C6.07250977,11.6562372 6.5939358,11.7307765 7.04082252,11.8052285 C7.41325722,11.8052285 7.78560463,11.5073331 7.86014394,11.1348984 C7.86014394,10.7624637 7.56224856,10.3901163 7.11536183,10.315577 C6.59402308,10.241125 5.99814502,10.1665857 5.40226696,10.0176816 C5.10437158,9.9432296 4.80638891,10.0176816 4.65748485,10.241125 C4.1361461,10.837003 3.68925938,11.5817852 3.39127671,12.3265673 C3.24228537,12.5500106 3.31682468,12.847906 3.46572874,13.0713494 C3.83816343,13.5182361 4.13605882,14.0395749 4.43395421,14.5610009 C4.58294554,14.7844442 4.88084093,14.9334356 5.10428429,14.9334356 C5.25327563,14.9334356 5.40217968,14.9334356 5.47671899,14.8589836 C5.84906641,14.6355402 5.99805774,14.1886535 5.77461438,13.8162188 Z" id="Path"></path>
                                <path d="M13.7441234,8.37912606 C12.924802,9.04945615 12.0310285,9.64533421 10.988351,9.9432296 C10.6159163,10.0922209 10.3924729,10.5391077 10.5414643,10.9114551 C10.6904556,11.2093505 10.988351,11.4327938 11.2862464,11.4327938 C11.3606984,11.4327938 11.4352377,11.4327938 11.4352377,11.4327938 C12.6269066,10.9859071 13.7441234,10.390029 14.7124361,9.49625559 C15.0103315,9.1983602 15.0848708,8.75147348 14.7868882,8.45349081 C14.4889055,8.1556827 14.0420188,8.08123068 13.7441234,8.37912606 Z" id="Path"></path>
                                <path d="M20.5218763,3.61236344 C20.4474242,3.31446805 20.2239809,3.16547672 19.9259982,3.09102469 C19.1066768,2.94203336 18.2129033,2.94203336 17.3191299,3.09102469 C17.0212345,3.16547672 16.7977911,3.31446805 16.7232518,3.61236344 C16.5742605,4.2082415 16.3508171,4.72958025 16.1273738,5.250919 C15.9783824,5.6233537 16.1273738,6.07024042 16.4998085,6.21914447 C16.5742605,6.2935965 16.7232518,6.2935965 16.7977038,6.2935965 C17.0955992,6.2935965 17.3190426,6.14460516 17.3190426,5.84670978 C17.542486,5.39982305 17.7659293,4.8784843 17.9149207,4.43159758 C18.3618074,4.35714555 18.7342421,4.35714555 19.1811288,4.43159758 C19.4045722,4.95293633 19.5535635,5.39982305 19.7770069,5.84670978 C19.9259982,6.21914447 20.3728849,6.36804853 20.7452323,6.21914447 C21.1175797,6.07024042 21.2665711,5.62326641 21.117667,5.250919 C20.8943109,4.72958025 20.6708676,4.20815422 20.5218763,3.61236344 Z" id="Path"></path>
                                <path d="M26.0335083,11.4328811 C26.3314037,11.4328811 26.6293863,11.2094377 26.7038384,10.9115424 C26.8528297,10.4646556 26.6293863,10.0922209 26.2569516,9.94331688 C25.2141868,9.64542149 24.3204134,9.12399546 23.5011793,8.37921335 C23.2032839,8.15576998 22.7563972,8.15576998 22.4584145,8.45366537 C22.2349711,8.75156076 22.2349711,9.19844748 22.5328665,9.49643016 C23.501092,10.3902036 24.6183088,11.0605337 25.8100649,11.4329684 C25.8845169,11.4328811 25.958969,11.4328811 26.0335083,11.4328811 Z" id="Path"></path>
                                <path d="M30.2789321,11.8052285 C30.8002709,11.8052285 31.2471576,11.6562372 31.7685836,11.5817852 C31.992027,11.8796805 32.2154704,12.1776632 32.3644617,12.5500106 C32.0665663,12.9224453 31.7685836,13.369332 31.5451403,13.8162188 C31.3961489,14.1886535 31.4706883,14.6355402 31.8430357,14.8589836 C31.992027,14.9334356 32.066479,14.9334356 32.2154704,14.9334356 C32.4389137,14.9334356 32.6623571,14.7844442 32.8113484,14.5610009 C33.1092438,14.0396621 33.4072265,13.5182361 33.7795739,13.0713494 C33.9285652,12.847906 33.9285652,12.5500106 33.8540259,12.3265673 C33.5561305,11.5817852 33.1092438,10.8369158 32.5878178,10.241125 C32.3643744,10.0176816 32.1409311,9.9432296 31.8430357,10.0176816 C31.2471576,10.166673 30.7258189,10.241125 30.1299408,10.315577 C29.6830541,10.390029 29.3851587,10.7624637 29.4596107,11.1348984 C29.5340627,11.5817852 29.8320454,11.8797678 30.2789321,11.8052285 Z" id="Path"></path>
                                <path d="M29.9064974,21.7857278 L29.9809495,21.7857278 C30.3533842,21.7857278 30.6512796,21.5622844 30.7257316,21.1153977 C30.8001836,19.9981809 31.023627,18.9554161 31.3216096,17.9871906 C31.3960617,17.6147559 31.1726183,17.1678692 30.8002709,17.0934172 C30.4279235,17.0189651 30.0554888,17.2424085 29.9064974,17.6147559 C29.6086021,18.6575207 29.3851587,19.8491895 29.2361674,20.9664063 C29.2361674,21.338841 29.5340627,21.7112757 29.9064974,21.7857278 Z" id="Path"></path>
                                <path d="M30.6512796,29.0103674 C30.7257316,29.0103674 30.8002709,29.0103674 30.8002709,29.0103674 C31.2471576,28.9359153 31.470601,28.4890286 31.3216096,28.1165939 C31.0237143,27.0738291 30.8747229,26.0311516 30.7257316,24.9883869 C30.6512796,24.5415001 30.3532969,24.2436047 29.9064102,24.3180568 C29.4595234,24.3925088 29.161628,24.7649435 29.2360801,25.1373782 C29.3850714,26.254595 29.6085148,27.3718118 29.9064102,28.4890286 C30.0554888,28.786924 30.3533842,29.0103674 30.6512796,29.0103674 Z" id="Path"></path>
                                <path d="M31.545053,32.2875658 C31.7684964,32.7344525 32.0663918,33.1813392 32.3643744,33.5537739 C32.1409311,33.9262086 31.9174877,34.298556 31.6940443,34.5965387 C31.1727056,34.5220867 30.7258189,34.4475474 30.2043928,34.3730953 C29.7575061,34.3730953 29.4596107,34.6709907 29.3850714,35.0434254 C29.3850714,35.4158601 29.6829668,35.7882075 30.0554015,35.8627468 C30.6512796,35.9371989 31.2470703,36.0117382 31.8429484,36.1606422 C31.9174004,36.1606422 31.9174004,36.1606422 31.9919397,36.1606422 C32.2153831,36.1606422 32.4388264,36.0861902 32.5878178,35.9371989 C33.1836958,35.2668688 33.6305826,34.5965387 33.928478,33.7772173 C34.0774693,33.5537739 34.00293,33.2558785 33.8540259,33.0324352 C33.4815912,32.5855484 33.1836958,32.0642097 32.8858005,31.5427837 C32.6623571,31.170349 32.2154704,31.0214449 31.8430357,31.2448883 C31.470601,31.4683316 31.3216096,31.9151311 31.545053,32.2875658 Z" id="Path"></path>
                                <path d="M26.3314037,34.298556 C25.2141868,34.4475474 24.1714221,34.6709907 23.1287446,34.9688861 C22.7563099,35.1178774 22.5328665,35.5647642 22.6818578,35.9371116 C22.8308492,36.235007 23.1287446,36.4584503 23.42664,36.4584503 C23.501092,36.4584503 23.5756313,36.3839983 23.5756313,36.3839983 C24.4694047,36.0861029 25.4376302,35.8626596 26.480395,35.7881202 C26.9272817,35.7136682 27.2251771,35.3412335 27.1507251,34.9687988 C27.0761858,34.5219994 26.7782904,34.298556 26.3314037,34.298556 Z" id="Path"></path>
                            </g>
                        </g>
                    </g>
                </g>
            </g>
        </g>
    </g>
</svg>