<?xml version="1.0" encoding="UTF-8"?>
<svg width="48px" height="48px" viewBox="0 0 48 35" version="1.1" xmlns="http://www.w3.org/2000/svg" xmlns:xlink="http://www.w3.org/1999/xlink">
    <!-- Generator: Sketch 53.2 (72643) - https://sketchapp.com -->
    <title>delivery-truck</title>
    <desc>Created with Sketch.</desc>
    <g id="prototype" stroke="none" stroke-width="1" fill="none" fill-rule="evenodd">
        <g id="main" transform="translate(-907.000000, -1551.000000)" fill-rule="nonzero">
            <g id="Group-4" transform="translate(0.000000, 1178.000000)">
                <g id="Group-2" transform="translate(321.000000, 70.000000)">
                    <g id="Group" transform="translate(586.000000, 296.000000)">
                        <g id="delivery-truck">
                            <rect id="Rectangle" x="0" y="0" width="48" height="48"></rect>
                            <path d="M3,7 L24,7 C25.1045695,7 26,7.8954305 26,9 L26,30 C26,30.5522847 25.5522847,31 25,31 L2,31 C1.44771525,31 1,30.5522847 1,30 L1,9 C1,7.8954305 1.8954305,7 3,7 Z M3.75,8.7572559 C3.19771525,8.7572559 2.75,9.20497115 2.75,9.7572559 L2.75,28.2975967 C2.75,28.8498815 3.19771525,29.2975967 3.75,29.2975967 L23.25,29.2975967 C23.8022847,29.2975967 24.25,28.8498815 24.25,28.2975967 L24.25,9.7572559 C24.25,9.20497115 23.8022847,8.7572559 23.25,8.7572559 L3.75,8.7572559 Z M18.6,37.5 C18.6,39.9852773 16.5851945,42 14.1,42 C11.6148055,42 9.6,39.9852773 9.6,37.5 C9.6,35.0146398 11.6148055,33 14.1,33 C16.5851945,33 18.6,35.0146398 18.6,37.5 Z M41,37.5 C41,39.9852773 38.9851945,42 36.5,42 C34.0148055,42 32,39.9852773 32,37.5 C32,35.0146398 34.0148055,33 36.5,33 C38.9851945,33 41,35.0146398 41,37.5 Z M17.3129676,37.4999494 C17.3129676,35.7155478 16.0971628,34.2604157 14.1020418,34.2604157 C12.1069207,34.2604157 10.92,35.6387148 10.92,37.4999494 C10.92,39.361184 12.4876027,40.6984998 14.1020418,40.6984998 C15.7164808,40.6984998 17.3129676,39.2843509 17.3129676,37.4999494 Z M39.7109765,37.4999494 C39.7109765,35.7155478 38.4951716,34.2604157 36.5000506,34.2604157 C34.5049296,34.2604157 33.3180089,35.6387148 33.3180089,37.4999494 C33.3180089,39.361184 34.8856116,40.6984998 36.5000506,40.6984998 C38.1144896,40.6984998 39.7109765,39.2843509 39.7109765,37.4999494 Z M10,33 L0.669221043,33 C0.299628338,33 0,33.2668274 0,33.5959601 L0,35.4040399 C0,35.7331726 0.299628338,36 0.669221043,36 L8.14828154,36 C8.34353807,34.8068515 9.01980919,33.7529174 10,33 Z M48,34.1701508 L47.9962761,35.5251754 C47.9962761,35.9126048 47.6938809,36.0869673 47.3208753,36.0869673 L41.9429841,36.0869673 C41.5518812,33.3008977 39.1531117,31.8540823 36.3646569,31.8540823 C33.5756607,31.8540823 31.5032655,33.300978 31.1121626,36.0869673 L19.8752447,36.0869673 C19.6781077,34.6825658 18.9892422,33.9972729 18,33.110997 L28.4402905,33.110997 L28.4402905,13.4030358 C28.4402905,12.628177 29.0450809,12 29.7910921,12 L36.1672996,12 C37.9626453,12 39.6406679,12.92628 40.6452232,14.4717401 L44.7557869,20.7953621 C45.3587211,21.7229273 45.6809151,22.8165337 45.6809151,23.9357653 L45.6809151,33.4686329 L47.3245992,33.4686329 C47.6976048,33.4686329 48,33.7827214 48,34.1701508 Z M43.1641722,21.7171889 L38.4940213,14.5768424 C37.7468108,13.8055162 37.3592575,13.9043714 37.1166394,13.9043714 L31.184516,13.9043714 C30.7728678,13.9043714 30.4389905,14.2054548 30.4389905,14.5768424 L30.4389905,22.0945493 C30.4389905,22.4660138 30.7727824,22.7652347 31.184516,22.7652347 L42.684395,22.7652347 C43.2882937,22.7652347 43.8928024,22.6510642 43.1641722,21.7171889 Z" id="Shape" fill="#FDB26F"></path>
                        </g>
                    </g>
                </g>
            </g>
        </g>
    </g>
</svg>
