<?xml version="1.0" encoding="UTF-8"?>
<svg width="48px" height="48px" viewBox="0 0 47 43" version="1.1" xmlns="http://www.w3.org/2000/svg" xmlns:xlink="http://www.w3.org/1999/xlink">
    <!-- Generator: Sketch 53.2 (72643) - https://sketchapp.com -->
    <title>delivery-truck</title>
    <desc>Created with Sketch.</desc>
    <g id="prototype" stroke="none" stroke-width="1" fill="none" fill-rule="evenodd">
        <g id="main" transform="translate(-614.000000, -1547.000000)" fill-rule="nonzero">
            <g id="Group-4" transform="translate(0.000000, 1178.000000)">
                <g id="Group-2" transform="translate(321.000000, 70.000000)">
                    <g id="Group-Copy-4" transform="translate(293.000000, 296.000000)">
                        <g id="delivery-truck">
                            <rect id="Rectangle" x="0" y="0" width="48" height="48"></rect>
                            <g id="chat" transform="translate(0.000000, 3.000000)" fill="#FDB26F">
                                <path d="M28.3125749,0 C18.3497006,0 10.2161677,6.20145792 9.69081836,13.988251 C3.8744511,15.8533511 0,20.3482424 0,25.3467107 C0.110933134,29.0273693 2.01872505,32.4236 5.11277445,34.4483993 L5.11277445,42.3004709 C5.11277445,42.6867797 5.4277495,42.9998834 5.81625,43 C5.99367265,43 6.16464571,42.9333227 6.29481038,42.8133734 L12.3175649,37.329979 C13.3533708,37.498654 14.401255,37.5829332 15.4508982,37.5817676 C22.0177645,37.5817676 27.7966068,34.3364933 29.9918164,29.468582 C30.7235529,29.412629 31.4552894,29.338025 32.1870259,29.2167935 L39.5794411,35.9404795 C39.8643962,36.2031089 40.3095359,36.1864395 40.573735,35.903294 C40.6944012,35.7739027 40.761477,35.604062 40.761477,35.4275769 L40.761477,25.7850093 C44.7297405,22.9873591 47,18.9867193 47,14.771593 C46.9906188,6.63043095 38.6131737,0 28.3125749,0 Z M15.4508982,36.1829425 C14.3685379,36.1842247 13.2884057,36.0873561 12.2237525,35.8938519 C12.0082186,35.8537523 11.786235,35.9157669 11.6233533,36.061711 L6.52934132,40.7244613 L6.52934132,34.0753793 C6.52887226,33.8435241 6.41301397,33.6270559 6.21976048,33.4971983 C3.14271457,31.4362626 1.40718563,28.4334514 1.40718563,25.3373852 C1.40718563,21.0849569 4.68123752,17.2148742 9.64391218,15.4616801 C9.69210828,16.0911513 9.79565369,16.7152605 9.95349301,17.3267802 C10.6455938,20.1648797 12.2255115,22.711674 14.4658683,24.6006707 C14.5972056,24.7219022 19.3628743,29.3846525 28.4157685,29.4965585 C26.2299401,33.5531513 21.1828343,36.1829425 15.4508982,36.1829425 Z M39.654491,24.8431337 C39.4612375,24.9729913 39.3453792,25.1894595 39.3449102,25.4213147 L39.3449102,33.8142653 L32.8718563,27.9298744 C32.7416916,27.8099252 32.5708358,27.7433644 32.3934132,27.7433644 L32.2620758,27.7433644 C31.0244561,27.9719557 29.7684256,28.0873588 28.5095808,28.0884079 C21.6988024,28.0884079 17.5804391,25.4586167 15.5634731,23.7707011 C13.5076921,22.0008377 12.0147854,19.6742418 11.2668663,17.0749917 C11.0849875,16.3077361 10.9905888,15.5225289 10.9854291,14.734291 C11.0417166,7.4044475 18.7906188,1.38949959 28.3125749,1.38949959 C37.8345309,1.38949959 45.5834331,7.3857965 45.5834331,14.7622675 C45.5834331,18.6230248 43.4257485,22.297272 39.654491,24.8431337 Z" id="Shape"></path>
                            </g>
                        </g>
                    </g>
                </g>
            </g>
        </g>
    </g>
</svg>
