<?xml version="1.0" encoding="UTF-8"?>
<svg width="48px" height="48px" viewBox="0 0 42 48" version="1.1" xmlns="http://www.w3.org/2000/svg" xmlns:xlink="http://www.w3.org/1999/xlink">
    <!-- Generator: Sketch 53.2 (72643) - https://sketchapp.com -->
    <title>delivery-truck</title>
    <desc>Created with Sketch.</desc>
    <g id="prototype" stroke="none" stroke-width="1" fill="none" fill-rule="evenodd">
        <g id="main" transform="translate(-324.000000, -1544.000000)" fill-rule="nonzero">
            <g id="Group-4" transform="translate(0.000000, 1178.000000)">
                <g id="Group-2" transform="translate(321.000000, 70.000000)">
                    <g id="Group-Copy-5" transform="translate(0.000000, 296.000000)">
                        <g id="delivery-truck">
                            <rect id="Rectangle" x="0" y="0" width="48" height="48"></rect>
                            <g id="award" transform="translate(3.000000, 0.000000)" fill="#FDB26F">
                                <path d="M41.8989414,42.0527016 L34.315925,29.3219033 C37.2813504,26.2008043 39.0606057,22.0530281 39.0606057,17.4945809 C39.0606057,12.6486642 37.0271711,8.29555247 33.7652031,5.13338643 C30.5032351,1.97122039 26.0127338,0 21.0138738,0 C16.0150138,0 11.5245124,1.97122039 8.26254446,5.13338643 C5.00057649,8.29555247 2.96714191,12.6486642 2.96714191,17.4945809 C2.96714191,22.0530281 4.74639717,26.2008043 7.71182259,29.3219033 L0.128806149,42.0527016 C0.001716488,42.2580371 -0.0406467324,42.5455067 0.0440797084,42.8329763 C0.21353259,43.2847143 0.721891234,43.4900498 1.18788666,43.3257814 L7.24582717,40.9849572 L8.17781802,47.2682222 C8.22018124,47.5146248 8.3472709,47.7610273 8.60145022,47.8842286 C9.02508242,48.1306311 9.57580429,47.9663628 9.82998361,47.5556919 L17.4977265,34.7016922 C18.5991702,34.9070277 19.7853404,35.030229 20.9291473,35.030229 C22.1153175,35.030229 23.2591245,34.9070277 24.3605682,34.7016922 L32.0283111,47.5556919 C32.2824904,47.9663628 32.8332123,48.089564 33.2568445,47.8842286 C33.5110238,47.7610273 33.6381135,47.5146248 33.6804767,47.2682222 L34.6124675,40.9849572 L40.670408,43.3257814 C41.1364035,43.4900498 41.6447621,43.2847143 41.814215,42.8329763 C42.0683943,42.5455067 42.0260311,42.2580371 41.8989414,42.0527016 Z M9.66053073,44.5167271 L8.89799276,39.6297432 C8.81326632,39.1780052 8.38963412,38.8494685 7.88127547,38.8905356 C7.79654903,38.8905356 7.71182259,38.9316027 7.62709615,38.9726698 L2.92477869,40.7796218 L9.02508242,30.553916 C10.9314273,32.1965997 13.2190412,33.4696795 15.7608345,34.2088871 L9.66053073,44.5167271 Z M21.0138738,33.264344 C16.5233724,33.264344 12.4565033,31.4984591 9.53344107,28.6648298 C6.61037886,25.8312005 4.78876039,21.8887597 4.78876039,17.535648 C4.78876039,13.1825363 6.61037886,9.24009557 9.53344107,6.40646626 C12.4565033,3.49070277 16.5233724,1.72481784 21.0138738,1.72481784 C25.5043751,1.72481784 29.5712443,3.49070277 32.4943065,6.32433208 C35.4173687,9.15796138 37.2389872,13.1004022 37.2389872,17.4535139 C37.2389872,21.8066255 35.4173687,25.7490663 32.4943065,28.5826956 C29.5712443,31.4984591 25.5043751,33.264344 21.0138738,33.264344 Z M34.4006514,38.9726698 C34.315925,38.9316027 34.2311985,38.8905356 34.1464721,38.8905356 C33.6804767,38.8084014 33.2144812,39.1369381 33.1297548,39.6297432 L32.3672168,44.5167271 L26.2669131,34.2088871 C28.8087063,33.4696795 31.0963202,32.1965997 33.0026651,30.553916 L39.1029689,40.7796218 L34.4006514,38.9726698 Z" id="Shape"></path>
                                <path d="M29.0033129,15.1067073 C28.7963599,14.839939 28.5480164,14.6493902 28.2582823,14.535061 C27.9685481,14.4207317 27.6374234,14.3445122 27.3062987,14.382622 L23.8708796,14.382622 L22.7947242,11.257622 C22.6291618,10.8003049 22.2566465,10.4192073 21.8427406,10.1905488 C21.5530064,10.0762195 21.2632723,10 20.9321476,10 C20.6010228,10 20.3112887,10.0762195 20.0215546,10.1905488 C19.566258,10.4192073 19.2351333,10.7621951 19.069571,11.257622 L17.9934156,14.382622 L14.5579965,14.382622 C14.2268717,14.3445122 13.895747,14.4207317 13.6060129,14.535061 C13.3162787,14.6493902 13.0679352,14.839939 12.8609822,15.1067073 C12.5298575,15.5259146 12.4470763,15.9832317 12.5298575,16.4405488 C12.6126387,16.8978659 12.8609822,17.3170732 13.3162787,17.6219512 L16.2136201,19.527439 L15.0960742,22.652439 C15.0960742,22.6905488 15.0960742,22.7286585 15.0546836,22.7286585 C14.9719024,22.9573171 14.9719024,23.2240854 15.013293,23.4908537 C15.0546836,23.757622 15.1788554,24.0243902 15.3858083,24.2530488 C15.716933,24.6722561 16.1722295,24.9009146 16.6689166,24.9771341 C17.1656037,25.0533537 17.7036814,24.9390244 18.1175873,24.6341463 L21.0149287,22.6905488 L23.9122702,24.6341463 C24.3675667,24.9390244 24.8642538,25.0152439 25.3609409,24.9771341 C25.857628,24.9009146 26.3129245,24.6722561 26.6440492,24.2530488 C26.8510021,24.0243902 26.9337833,23.757622 27.0165645,23.4908537 C27.0579551,23.2240854 27.0579551,22.9954268 26.9751739,22.7286585 C26.9751739,22.6905488 26.9751739,22.652439 26.9337833,22.652439 L25.8162374,19.527439 L28.7135788,17.6219512 C29.1688753,17.3170732 29.4172188,16.8978659 29.5,16.4405488 C29.4586094,16.0213415 29.3344376,15.5259146 29.0033129,15.1067073 Z M27.5546422,16.3262195 L27.5132516,16.3643293 L24.1606137,18.6128049 C23.8708796,18.8033537 23.7053172,19.1844512 23.829489,19.4893293 L25.1125973,23.1097561 L25.1125973,23.1478659 C25.1125973,23.1859756 25.1125973,23.2240854 25.1125973,23.2621951 C25.1125973,23.3003049 25.1125973,23.3384146 25.0712067,23.3384146 C25.0298161,23.3765244 24.9884255,23.4146341 24.9056443,23.4146341 C24.8642538,23.4146341 24.7814726,23.4146341 24.740082,23.3765244 L21.3460535,21.089939 C21.1804911,20.9756098 21.0149287,20.9375 20.8079758,20.9375 C20.6424134,20.9375 20.4354605,20.9756098 20.2698981,21.089939 L16.8758696,23.3765244 C16.834479,23.4146341 16.7516978,23.4146341 16.7103072,23.4146341 C16.6689166,23.4146341 16.5861355,23.3765244 16.5447449,23.3384146 C16.5033543,23.3003049 16.5033543,23.2621951 16.5033543,23.2621951 C16.5033543,23.2240854 16.5033543,23.1859756 16.5033543,23.1478659 L16.5033543,23.1097561 L17.7864626,19.4893293 C17.9106344,19.1463415 17.7864626,18.8033537 17.4553379,18.6128049 L14.2682623,16.3643293 L14.2268717,16.3262195 C14.1854812,16.2881098 14.1440906,16.25 14.1440906,16.2118902 C14.1440906,16.1737805 14.1440906,16.097561 14.1854812,16.0594512 C14.1854812,16.0594512 14.1854812,16.0213415 14.2268717,16.0213415 C14.2682623,15.9832317 14.2682623,15.9832317 14.3096529,15.9832317 C14.3510435,15.9832317 14.3924341,15.945122 14.4338247,15.945122 C14.4752153,15.945122 14.5166059,15.945122 14.5579965,15.945122 L18.6142744,15.945122 C18.9867898,15.945122 19.3179145,15.7164634 19.4420863,15.3734756 L20.7251946,11.714939 C20.7251946,11.6768293 20.7665852,11.6006098 20.8493664,11.6006098 C20.890757,11.6006098 20.9321476,11.5625 20.9321476,11.5625 C20.9735382,11.5625 21.0149287,11.5625 21.0149287,11.6006098 C21.0563193,11.6387195 21.0977099,11.6768293 21.1391005,11.714939 L22.4222089,15.3734756 C22.5463806,15.6783537 22.8775054,15.945122 23.2500207,15.945122 L27.3062987,15.945122 C27.3476892,15.945122 27.3890798,15.945122 27.4304704,15.945122 C27.471861,15.945122 27.5132516,15.945122 27.5546422,15.9832317 C27.5960328,15.9832317 27.5960328,16.0213415 27.6374234,16.0213415 C27.6374234,16.0213415 27.6374234,16.0594512 27.678814,16.0594512 C27.7202046,16.097561 27.7202046,16.1356707 27.7202046,16.2118902 C27.6374234,16.25 27.5960328,16.2881098 27.5546422,16.3262195 Z" id="Shape"></path>
                                <path d="M30.9096386,7.59036145 C28.3795181,5.06024096 24.8795181,3.5 21,3.5 C17.1204819,3.5 13.6204819,5.06024096 11.0903614,7.59036145 C8.56024096,10.1204819 7,13.6204819 7,17.5 C7,21.3795181 8.56024096,24.8795181 11.0903614,27.4096386 C13.6204819,29.939759 17.1204819,31.5 21,31.5 C24.8795181,31.5 28.3795181,29.939759 30.9096386,27.4096386 C33.439759,24.8795181 35,21.3795181 35,17.5 C35,13.6204819 33.439759,10.1204819 30.9096386,7.59036145 Z M29.5241379,25.9888124 C27.3310345,28.1781411 24.3103448,29.5 21,29.5 C17.6896552,29.5 14.6689655,28.136833 12.5172414,25.9888124 C10.3241379,23.7994836 9,20.8253012 9,17.520654 C9,14.2160069 10.3655172,11.2005164 12.5172414,9.0524957 C14.6689655,6.86316695 17.6896552,5.5 21,5.5 C24.3103448,5.5 27.3310345,6.86316695 29.4827586,9.01118761 C31.6758621,11.2005164 33,14.1746988 33,17.479346 C33,20.7839931 31.6758621,23.8407917 29.5241379,25.9888124 Z" id="Shape"></path>
                            </g>
                        </g>
                    </g>
                </g>
            </g>
        </g>
    </g>
</svg>
